# xmcd
#
# Track frame offsets:
#	150
#	14825
#	27442
#	48243
#	68141
#	81195
#	93870
#	109015
#	121683
#	138997
#	153762
#	164932
#	183124
#	194722
#	210149
#	229527
#	244006
#	258220
#	276346
#	291626
#
# Disc length: 4081 seconds
#
# Revision: 4
# Processed by: cddbd v1.5.2PL0 Copyright (c) Steve Scherf et al.
# Submitted via: audiograbber 1.83.01
#
DISCID=180fef14
DTITLE=Various Artist - 100 Hits - Country Greats [Disc 4]
DYEAR=2015
DGENRE=Country
TTITLE0=Roseanne Cash - My Baby Thinks He's A Train
TTITLE1=Aaron Tippin - There Ain't Nothin' Wrong With The Radio
TTITLE2=The Highwaymen - Desperados Waiting For A Train
TTITLE3=Alabama - Roll On (Eighteen Wheeler)
TTITLE4=Larry Gatlin And The Gatlin Brothers - Houston (Means I'm One Day Close
TTITLE4=r To You)
TTITLE5=Exile - Give Me One More Chance
TTITLE6=Ricky Van Shelton - Somebody Lied
TTITLE7=Merle Haggard - Let's Chase Each Other Round The Room
TTITLE8=Ricky Skaggs - Country Boy
TTITLE9=Ronnie Milsap - (There's) No Gettin' Over Me
TTITLE10=Alan Jackson - Chattahoochee
TTITLE11=Joy Lynn White - Cold Day In July
TTITLE12=Martina McBride - The Time Has Come
TTITLE13=Patty Loveless - You Can Feel Bad
TTITLE14=Travis Tritt - Best Of Intentions
TTITLE15=Mindy McCready - Guys Do It All The Time
TTITLE16=Kenny Chesney - How Forever Feels
TTITLE17=Lonestar - Amazed
TTITLE18=Montgomery Gentry - If You Ever Stop Loving Me
TTITLE19=Jim Croce - I Got A Name
EXTD=
EXTT0=
EXTT1=
EXTT2=
EXTT3=
EXTT4=
EXTT5=
EXTT6=
EXTT7=
EXTT8=
EXTT9=
EXTT10=
EXTT11=
EXTT12=
EXTT13=
EXTT14=
EXTT15=
EXTT16=
EXTT17=
EXTT18=
EXTT19=
PLAYORDER=
